<svg width="70" height="66" viewBox="0 0 70 66" fill="none" xmlns="http://www.w3.org/2000/svg">
<path d="M1.66675 22.9241C1.66675 21.7563 1.66675 21.1725 1.71547 20.6807C2.18542 15.9376 5.93764 12.1853 10.6808 11.7154C11.1726 11.6667 11.7879 11.6667 13.0187 11.6667C13.4929 11.6667 13.73 11.6667 13.9314 11.6545C16.5021 11.4988 18.7533 9.87625 19.7139 7.48666C19.7891 7.29952 19.8594 7.08857 20.0001 6.66666C20.1407 6.24476 20.211 6.0338 20.2863 5.84667C21.2469 3.45707 23.498 1.83455 26.0688 1.67886C26.2701 1.66666 26.4925 1.66666 26.9372 1.66666H43.063C43.5077 1.66666 43.73 1.66666 43.9314 1.67886C46.5021 1.83455 48.7533 3.45707 49.7139 5.84667C49.7891 6.0338 49.8594 6.24476 50.0001 6.66666C50.1407 7.08857 50.211 7.29952 50.2863 7.48666C51.2469 9.87625 53.498 11.4988 56.0688 11.6545C56.2701 11.6667 56.5072 11.6667 56.9815 11.6667C58.2122 11.6667 58.8276 11.6667 59.3194 11.7154C64.0625 12.1853 67.8147 15.9376 68.2847 20.6807C68.3334 21.1725 68.3334 21.7563 68.3334 22.9241V49C68.3334 54.6005 68.3334 57.4008 67.2435 59.5399C66.2847 61.4215 64.7549 62.9513 62.8733 63.9101C60.7342 65 57.9339 65 52.3334 65H17.6667C12.0662 65 9.26596 65 7.12684 63.9101C5.24522 62.9513 3.71542 61.4215 2.75668 59.5399C1.66675 57.4008 1.66675 54.6005 1.66675 49V22.9241Z" stroke="#FFFDFD" stroke-width="2" stroke-linecap="round" stroke-linejoin="round"/>
<path d="M35.0001 50C42.3639 50 48.3334 44.0305 48.3334 36.6667C48.3334 29.3029 42.3639 23.3333 35.0001 23.3333C27.6363 23.3333 21.6667 29.3029 21.6667 36.6667C21.6667 44.0305 27.6363 50 35.0001 50Z" stroke="#FFFDFD" stroke-width="2" stroke-linecap="round" stroke-linejoin="round"/>
</svg>
