<svg width="22" height="22" viewBox="0 0 22 22" fill="none" xmlns="http://www.w3.org/2000/svg">
<path d="M17 9L13 5M1.5 20.5L4.88437 20.124C5.29786 20.078 5.5046 20.055 5.69785 19.9925C5.86929 19.937 6.03245 19.8586 6.18289 19.7594C6.35245 19.6475 6.49955 19.5005 6.79373 19.2063L20 6C21.1046 4.89543 21.1046 3.10457 20 2C18.8955 0.895428 17.1046 0.895427 16 2L2.79373 15.2063C2.49955 15.5005 2.35246 15.6475 2.24064 15.8171C2.14143 15.9676 2.06301 16.1307 2.00751 16.3022C1.94496 16.4954 1.92198 16.7021 1.87604 17.1156L1.5 20.5Z" stroke="#8A8A8A" stroke-width="2" stroke-linecap="round" stroke-linejoin="round"/>
</svg>
