<svg width="26" height="26" viewBox="0 0 26 26" fill="none" xmlns="http://www.w3.org/2000/svg">
<path d="M11.9166 4.33333H7.36663C5.54646 4.33333 4.63637 4.33333 3.94116 4.68756C3.32963 4.99915 2.83244 5.49634 2.52085 6.10786C2.16663 6.80308 2.16663 7.71316 2.16663 9.53333V18.6333C2.16663 20.4535 2.16663 21.3636 2.52085 22.0588C2.83244 22.6703 3.32963 23.1675 3.94116 23.4791C4.63637 23.8333 5.54646 23.8333 7.36663 23.8333H16.4666C18.2868 23.8333 19.1969 23.8333 19.8921 23.4791C20.5036 23.1675 21.0008 22.6703 21.3124 22.0588C21.6666 21.3636 21.6666 20.4535 21.6666 18.6333V14.0833M8.6666 17.3333H10.4807C11.0106 17.3333 11.2756 17.3333 11.525 17.2735C11.746 17.2204 11.9574 17.1328 12.1512 17.0141C12.3699 16.8801 12.5573 16.6927 12.932 16.318L23.2916 5.95833C24.1891 5.06087 24.1891 3.60579 23.2916 2.70833C22.3942 1.81087 20.9391 1.81087 20.0416 2.70833L9.68196 13.068C9.30723 13.4427 9.11987 13.6301 8.98588 13.8487C8.86708 14.0426 8.77954 14.2539 8.72646 14.475C8.6666 14.7244 8.6666 14.9893 8.6666 15.5193V17.3333Z" stroke="#8A8A8A" stroke-width="2" stroke-linecap="round" stroke-linejoin="round"/>
</svg>
