<svg width="128" height="128" viewBox="0 0 128 128" fill="none" xmlns="http://www.w3.org/2000/svg">
<path d="M89 89C89 89 79.625 76.5 64 76.5C48.375 76.5 39 89 39 89M95.25 46.75C92.7812 49.7812 89.4062 51.5 85.875 51.5C82.3438 51.5 79.0625 49.7812 76.5 46.75M51.5 46.75C49.0312 49.7812 45.6562 51.5 42.125 51.5C38.5938 51.5 35.3125 49.7812 32.75 46.75M126.5 64C126.5 98.5178 98.5178 126.5 64 126.5C29.4822 126.5 1.5 98.5178 1.5 64C1.5 29.4822 29.4822 1.5 64 1.5C98.5178 1.5 126.5 29.4822 126.5 64Z" stroke="#8A8A8A" stroke-width="2" stroke-linecap="round" stroke-linejoin="round"/>
</svg>
