<svg width="20" height="19" viewBox="0 0 20 19" fill="none" xmlns="http://www.w3.org/2000/svg">
<path d="M9.28265 1.4533C9.51314 0.986366 9.62838 0.752896 9.78483 0.678302C9.92095 0.613402 10.0791 0.613402 10.2152 0.678302C10.3717 0.752896 10.4869 0.986366 10.7174 1.4533L12.9041 5.88327C12.9721 6.02112 13.0061 6.09005 13.0558 6.14356C13.0999 6.19095 13.1527 6.22934 13.2113 6.25661C13.2776 6.28741 13.3536 6.29853 13.5057 6.32076L18.397 7.03569C18.9121 7.11098 19.1696 7.14862 19.2888 7.27443C19.3925 7.38388 19.4412 7.53429 19.4215 7.68376C19.3988 7.85557 19.2124 8.03717 18.8395 8.40037L15.3014 11.8464C15.1912 11.9538 15.136 12.0075 15.1004 12.0715C15.0689 12.128 15.0487 12.1902 15.0409 12.2545C15.0321 12.3271 15.0451 12.403 15.0711 12.5547L15.906 17.4221C15.994 17.9355 16.038 18.1922 15.9553 18.3445C15.8833 18.477 15.7554 18.57 15.6071 18.5975C15.4366 18.6291 15.2061 18.5078 14.7451 18.2654L10.3724 15.9658C10.2361 15.8942 10.168 15.8583 10.0962 15.8443C10.0327 15.8318 9.96734 15.8318 9.90379 15.8443C9.83202 15.8583 9.7639 15.8942 9.62766 15.9658L5.25492 18.2654C4.79392 18.5078 4.56341 18.6291 4.39297 18.5975C4.24468 18.57 4.11672 18.477 4.04474 18.3445C3.962 18.1922 4.00603 17.9355 4.09407 17.4221L4.92889 12.5547C4.95491 12.403 4.96793 12.3271 4.95912 12.2545C4.95132 12.1902 4.93111 12.128 4.89961 12.0715C4.86402 12.0075 4.80888 11.9538 4.69859 11.8464L1.16056 8.40037C0.787663 8.03717 0.601215 7.85557 0.578526 7.68376C0.558786 7.53429 0.607554 7.38388 0.711251 7.27443C0.830435 7.14862 1.08797 7.11098 1.60304 7.03569L6.49431 6.32076C6.64642 6.29853 6.72248 6.28741 6.78872 6.25661C6.84736 6.22934 6.90016 6.19095 6.94419 6.14356C6.99391 6.09005 7.02793 6.02112 7.09597 5.88327L9.28265 1.4533Z" fill="#F9DD08"/>
</svg>
