<svg width="36" height="36" viewBox="0 0 36 36" fill="none" xmlns="http://www.w3.org/2000/svg">
<path d="M30 31.5C30 29.4067 30 28.36 29.7416 27.5083C29.1599 25.5907 27.6593 24.0901 25.7417 23.5084C24.89 23.25 23.8433 23.25 21.75 23.25H14.25C12.1567 23.25 11.11 23.25 10.2583 23.5084C8.34068 24.0901 6.84006 25.5907 6.25836 27.5083C6 28.36 6 29.4067 6 31.5M24.75 11.25C24.75 14.9779 21.7279 18 18 18C14.2721 18 11.25 14.9779 11.25 11.25C11.25 7.52208 14.2721 4.5 18 4.5C21.7279 4.5 24.75 7.52208 24.75 11.25Z" stroke="#8A8A8A" stroke-width="2" stroke-linecap="round" stroke-linejoin="round"/>
</svg>
